# Blender v2.93.1 OBJ File: 'Estante.blend'
# www.blender.org
mtllib Estante.mtl
o the_footwear_stand
v 9.717185 0.095037 -17.320910
v 8.604573 0.095037 -17.320910
v 8.604573 0.095037 -17.380110
v 9.717185 0.095037 -17.380110
v 8.604572 3.058091 -17.320910
v 9.717185 3.058091 -17.320910
v 9.717185 3.058091 -17.380110
v 8.604572 3.058091 -17.380110
v 8.604572 2.980372 -17.320910
v 8.604572 2.980372 -17.380110
v 8.604572 2.980372 -15.272562
v 9.717185 2.980372 -15.272562
v 9.717185 3.058091 -15.272562
v 8.604572 3.058091 -15.272562
v 9.717185 2.980372 -17.380110
v 9.717185 2.980372 -17.320910
v 9.717185 2.980372 -18.010603
v 8.604572 2.980372 -18.010603
v 8.604572 3.058091 -18.010603
v 9.717185 3.058091 -18.010603
v 9.717185 0.095037 -15.272562
v 8.604573 0.095037 -15.272562
v 8.604573 0.095037 -15.331763
v 9.717185 0.095037 -15.331763
v 8.604573 0.095037 -18.010603
v 9.717185 0.095037 -18.010603
v 9.717185 0.095037 -17.951401
v 8.604573 0.095037 -17.951401
v 9.717185 3.058091 -15.331763
v 8.604572 3.058091 -15.331763
v 8.604572 3.058091 -17.951401
v 9.717185 3.058091 -17.951401
v 8.604572 2.980372 -15.331763
v 8.604572 2.980372 -17.951401
v 9.717185 2.980372 -17.951401
v 9.717185 2.980372 -15.331763
v 9.690212 2.980372 -17.951401
v 9.690212 2.980372 -17.380110
v 9.717185 1.966779 -17.320910
v 9.717185 1.966779 -17.380110
v 9.717185 2.044500 -17.380110
v 9.717185 2.044500 -17.320910
v 8.604572 1.966779 -17.380110
v 8.604572 1.966779 -17.320910
v 8.604572 2.044500 -17.320910
v 8.604572 2.044500 -17.380110
v 8.604572 1.966779 -15.272562
v 9.717185 1.966779 -15.272562
v 9.717185 2.044500 -15.272562
v 8.604572 2.044500 -15.272562
v 8.604572 1.966779 -15.331763
v 8.604572 2.044500 -15.331763
v 9.717185 1.966779 -15.331763
v 9.717185 2.044500 -15.331763
v 9.717185 1.966779 -18.010603
v 8.604572 1.966779 -18.010603
v 8.604572 2.044500 -18.010603
v 9.717185 2.044500 -18.010603
v 9.717185 1.966779 -17.951401
v 9.717185 2.044500 -17.951401
v 8.604572 1.966779 -17.951401
v 8.604572 2.044500 -17.951401
v 9.717185 0.172756 -17.380110
v 9.717185 0.172756 -17.320910
v 8.604573 0.172756 -17.320910
v 8.604573 0.172756 -17.380110
v 9.717185 0.172756 -15.272562
v 8.604573 0.172756 -15.272562
v 8.604573 0.172756 -15.331763
v 9.717185 0.172756 -15.331763
v 8.604573 0.172756 -18.010603
v 9.717185 0.172756 -18.010603
v 9.717185 0.172756 -17.951401
v 8.604573 0.172756 -17.951401
v 9.690213 0.172756 -17.380110
v 9.690213 0.172756 -17.951401
v 9.717185 1.030910 -17.320910
v 9.717185 1.030910 -17.380110
v 9.717185 1.108628 -17.380110
v 9.717185 1.108628 -17.320910
v 8.604573 1.030910 -17.380110
v 8.604573 1.030910 -17.320910
v 8.604573 1.108628 -17.320910
v 8.604573 1.108628 -17.380110
v 9.690212 2.044500 -17.380110
v 8.604572 1.030910 -15.272562
v 9.717185 1.030910 -15.272562
v 9.717185 1.108628 -15.272562
v 8.604572 1.108628 -15.272562
v 8.604572 1.030910 -15.331763
v 8.604572 1.108628 -15.331763
v 9.690212 2.980372 -15.331764
v 9.690212 2.044500 -15.331764
v 9.717185 1.030910 -15.331763
v 9.717185 1.108628 -15.331763
v 9.717185 1.030910 -18.010603
v 8.604573 1.030910 -18.010603
v 8.604573 1.108628 -18.010603
v 9.717185 1.108628 -18.010603
v 9.717185 1.030910 -17.951401
v 9.717185 1.108628 -17.951401
v 8.604573 1.030910 -17.951401
v 8.604573 1.108628 -17.951401
v 9.690213 0.172756 -17.320910
v 9.690213 1.030910 -17.320910
v 9.690213 1.030910 -17.951401
v 9.690212 1.030910 -15.331764
v 9.690213 1.108628 -17.380110
v 9.690213 1.108628 -17.951401
v 9.690213 1.108628 -17.320910
v 9.690212 1.966779 -17.320910
v 9.690212 1.966779 -17.951401
v 9.690212 2.044500 -17.951401
v 9.690212 1.966779 -15.331764
v 9.690212 2.980372 -17.320910
v 9.690212 2.044500 -17.320910
v 9.690213 0.172756 -15.331764
v 9.690213 1.030910 -17.380110
v 9.690212 1.108628 -15.331764
v 9.690212 1.966779 -17.380110
vt 0.251893 0.631693
vt 0.230271 0.631693
vt 0.230271 0.657923
vt 0.251893 0.657923
vt 0.230271 0.631694
vt 0.251893 0.631694
vt 0.251893 0.657923
vt 0.230271 0.657923
vt 0.000000 0.631693
vt 1.000000 0.631693
vt 1.000000 0.657923
vt 0.000000 0.657923
vt 0.978378 0.631694
vt 1.000000 0.631694
vt 1.000000 0.657923
vt 0.978378 0.657923
vt 0.978378 0.631693
vt 0.978378 0.657923
vt 1.000000 0.631693
vt 0.000000 0.631693
vt 0.000000 0.657923
vt 1.000000 0.657923
vt 0.021622 0.631693
vt 0.000000 0.631693
vt 0.000000 0.657923
vt 0.021622 0.657923
vt 0.021622 0.631694
vt 0.021622 0.657923
vt 0.251893 0.000000
vt 0.230271 0.000000
vt 0.230271 0.026229
vt 0.251893 0.026229
vt 0.230271 0.000000
vt 0.251893 0.000000
vt 0.251893 0.026229
vt 0.230271 0.026229
vt 0.000000 0.000000
vt 1.000000 0.000000
vt 1.000000 0.026230
vt 0.000000 0.026230
vt 0.978378 0.000000
vt 1.000000 0.000000
vt 1.000000 0.026229
vt 0.978378 0.026229
vt 0.978378 0.000000
vt 0.978378 0.026229
vt 1.000000 0.000000
vt 0.000000 0.000000
vt 0.000000 0.026230
vt 1.000000 0.026230
vt 0.021622 0.000000
vt 0.000000 0.000000
vt 0.000000 0.026229
vt 0.021622 0.026229
vt 0.021622 0.000000
vt 0.021622 0.026229
vt 0.251893 0.315848
vt 0.230271 0.315848
vt 0.230271 0.342077
vt 0.251893 0.342077
vt 0.230271 0.973771
vt 0.251893 0.973771
vt 0.230271 0.315848
vt 0.251893 0.315848
vt 0.251893 0.342077
vt 0.230271 0.342077
vt 0.251893 0.973771
vt 0.230271 0.973771
vt 0.785226 0.688944
vt 0.785226 0.267650
vt 0.533148 0.267650
vt 0.533148 0.688944
vt 0.000000 0.315847
vt 1.000000 0.315848
vt 1.000000 0.342077
vt 0.000000 0.342077
vt 1.000000 0.973770
vt 0.000000 0.973770
vt 0.978378 0.315848
vt 1.000000 0.315848
vt 1.000000 0.342077
vt 0.978378 0.342077
vt 1.000000 0.973771
vt 0.978378 0.973771
vt 0.785226 0.688944
vt 0.785226 0.267650
vt 0.533148 0.267650
vt 0.533148 0.688944
vt 0.978378 0.315848
vt 0.978378 0.342077
vt 0.978378 0.973771
vt 1.000000 0.315848
vt 0.000000 0.315847
vt 0.000000 0.342077
vt 1.000000 0.342077
vt 0.000000 0.973770
vt 1.000000 0.973770
vt 0.021622 0.315848
vt 0.000000 0.315848
vt 0.000000 0.342077
vt 0.021622 0.342077
vt 0.000000 0.973771
vt 0.021622 0.973771
vt 0.021622 0.315848
vt 0.021622 0.342077
vt 0.021622 0.973771
vt 0.028991 0.688944
vt 0.028991 0.267650
vt 0.260136 0.267650
vt 0.260136 0.688944
vt 0.028991 0.688944
vt 0.028991 0.267650
vt 0.260136 0.267650
vt 0.260136 0.688944
vt 0.281069 0.688944
vt 0.281069 0.267650
vt 0.512213 0.267650
vt 0.512213 0.688944
vt 0.000000 0.000000
vt 1.000000 0.000001
vt 1.000000 1.000000
vt 0.000000 0.999999
vt 0.281069 0.688944
vt 0.281069 0.267650
vt 0.512213 0.267650
vt 0.512213 0.688944
vt 0.785226 0.688944
vt 0.533148 0.688944
vt 0.533148 0.267650
vt 0.785226 0.267650
vt 0.785226 0.688944
vt 0.533148 0.688944
vt 0.533148 0.267650
vt 0.785226 0.267650
vt 0.028991 0.688944
vt 0.260136 0.688944
vt 0.260136 0.267650
vt 0.028991 0.267650
vt 0.028991 0.688944
vt 0.260136 0.688944
vt 0.260136 0.267650
vt 0.028991 0.267650
vt 0.281069 0.688944
vt 0.512213 0.688944
vt 0.512213 0.267650
vt 0.281069 0.267650
vt 0.281069 0.688944
vt 0.512213 0.688944
vt 0.512213 0.267650
vt 0.281069 0.267650
vt 0.021622 0.973771
vt 0.021622 0.657924
vt 0.230271 0.657924
vt 0.230271 0.973771
vt 0.978378 0.973771
vt 0.251893 0.973771
vt 0.251893 0.657924
vt 0.978378 0.657924
vt 0.251893 0.342077
vt 0.978378 0.342077
vt 0.978378 0.631694
vt 0.251893 0.631694
vt 0.230271 0.631694
vt 0.021622 0.631694
vt 0.021622 0.342077
vt 0.230271 0.342077
vt 0.230271 0.315848
vt 0.021622 0.315848
vt 0.021622 0.026229
vt 0.230271 0.026229
vt 0.978378 0.315848
vt 0.251893 0.315848
vt 0.251893 0.026229
vt 0.978378 0.026229
vt 0.251893 1.000000
vt 0.230271 1.000000
vt 0.251893 1.000000
vt 0.251893 0.000000
vt 0.230271 0.000000
vt 0.230271 1.000000
vt 1.000000 1.000000
vt 0.000000 1.000000
vt 0.230271 1.000000
vt 0.251893 1.000000
vt 0.000000 1.000000
vt 0.000000 1.000000
vt 1.000000 1.000000
vt 0.978378 1.000000
vt 0.000000 1.000000
vt 0.021622 1.000000
vt 1.000000 1.000000
vt 1.000000 0.000000
vt 0.978378 0.000000
vt 0.978378 1.000000
vt 0.000000 0.000000
vt 0.021622 1.000000
vt 0.021622 0.000000
vt 0.021622 1.000000
vt 0.978378 1.000000
vt 0.062310 0.688944
vt 0.062310 0.267650
vt 0.264323 0.267650
vt 0.264323 0.688944
vt 0.264323 0.267650
vt 0.062310 0.267650
vt 0.062310 0.688944
vt 0.264323 0.688944
vt 0.285257 0.267650
vt 0.988632 0.267650
vt 0.988633 0.688944
vt 0.285257 0.688944
vt 0.264323 0.267650
vt 0.062310 0.267650
vt 0.062310 0.688944
vt 0.264323 0.688944
vt 0.264323 0.267650
vt 0.062310 0.267650
vt 0.062310 0.688944
vt 0.264323 0.688944
vt 0.285257 0.267650
vt 0.988632 0.267650
vt 0.988633 0.688944
vt 0.285257 0.688944
vt 0.988633 0.688944
vt 0.285257 0.688944
vt 0.285257 0.267650
vt 0.988632 0.267650
vt 0.285257 0.688944
vt 0.988633 0.688944
vt 0.988632 0.267650
vt 0.285257 0.267650
vt 0.285257 0.688944
vt 0.988633 0.688944
vt 0.988632 0.267650
vt 0.285257 0.267650
vt 0.285257 0.688944
vt 0.988633 0.688944
vt 0.988632 0.267650
vt 0.285257 0.267650
vt 0.264323 0.688944
vt 0.062310 0.688944
vt 0.062310 0.267650
vt 0.264323 0.267650
vt 0.264323 0.688944
vt 0.062310 0.688944
vt 0.062310 0.267650
vt 0.264323 0.267650
vn 1.0000 0.0000 0.0000
vn -1.0000 0.0000 0.0000
vn 0.0000 0.0000 1.0000
vn 0.0000 0.0000 -1.0000
vn 0.0000 -1.0000 0.0000
vn 0.0000 1.0000 0.0000
usemtl Material.001
s off
f 39/1/1 40/2/1 41/3/1 42/4/1
f 43/5/2 44/6/2 45/7/2 46/8/2
f 47/9/3 48/10/3 49/11/3 50/12/3
f 51/13/2 47/14/2 50/15/2 52/16/2
f 48/10/1 53/17/1 54/18/1 49/11/1
f 55/19/4 56/20/4 57/21/4 58/22/4
f 59/23/1 55/24/1 58/25/1 60/26/1
f 56/20/2 61/27/2 62/28/2 57/21/2
f 1/29/1 4/30/1 63/31/1 64/32/1
f 3/33/2 2/34/2 65/35/2 66/36/2
f 22/37/3 21/38/3 67/39/3 68/40/3
f 23/41/2 22/42/2 68/43/2 69/44/2
f 21/38/1 24/45/1 70/46/1 67/39/1
f 26/47/4 25/48/4 71/49/4 72/50/4
f 27/51/1 26/52/1 72/53/1 73/54/1
f 25/48/2 28/55/2 74/56/2 71/49/2
f 77/57/1 78/58/1 79/59/1 80/60/1
f 15/61/1 16/62/1 42/4/1 41/3/1
f 81/63/2 82/64/2 83/65/2 84/66/2
f 9/67/2 10/68/2 46/8/2 45/7/2
f 10/69/4 38/70/4 85/71/4 46/72/4
f 86/73/3 87/74/3 88/75/3 89/76/3
f 12/77/3 11/78/3 50/12/3 49/11/3
f 90/79/2 86/80/2 89/81/2 91/82/2
f 11/83/2 33/84/2 52/16/2 50/15/2
f 33/85/4 92/86/4 93/87/4 52/88/4
f 87/74/1 94/89/1 95/90/1 88/75/1
f 36/91/1 12/77/1 49/11/1 54/18/1
f 96/92/4 97/93/4 98/94/4 99/95/4
f 18/96/4 17/97/4 58/22/4 57/21/4
f 100/98/1 96/99/1 99/100/1 101/101/1
f 17/102/1 35/103/1 60/26/1 58/25/1
f 97/93/2 102/104/2 103/105/2 98/94/2
f 34/106/2 18/96/2 57/21/2 62/28/2
f 64/32/1 63/31/1 78/58/1 77/57/1
f 65/107/3 104/108/3 105/109/3 82/110/3
f 66/36/2 65/35/2 82/64/2 81/63/2
f 68/40/3 67/39/3 87/74/3 86/73/3
f 69/44/2 68/43/2 86/80/2 90/79/2
f 67/39/1 70/46/1 94/89/1 87/74/1
f 72/50/4 71/49/4 97/93/4 96/92/4
f 73/54/1 72/53/1 96/99/1 100/98/1
f 74/111/3 76/112/3 106/113/3 102/114/3
f 71/49/2 74/56/2 102/104/2 97/93/2
f 80/60/1 79/59/1 40/2/1 39/1/1
f 83/115/3 110/116/3 111/117/3 44/118/3
f 84/66/2 83/65/2 44/6/2 43/5/2
f 89/119/3 88/120/3 48/121/3 47/122/3
f 91/82/2 89/81/2 47/14/2 51/13/2
f 88/75/1 95/90/1 53/17/1 48/10/1
f 99/95/4 98/94/4 56/20/4 55/19/4
f 101/101/1 99/100/1 55/24/1 59/23/1
f 103/123/3 109/124/3 112/125/3 61/126/3
f 98/94/2 103/105/2 61/27/2 56/20/2
f 34/127/3 62/128/3 113/129/3 37/130/3
f 9/131/3 45/132/3 116/133/3 115/134/3
f 66/135/4 81/136/4 118/137/4 75/138/4
f 69/139/4 90/140/4 107/141/4 117/142/4
f 84/143/4 43/144/4 120/145/4 108/146/4
f 91/147/4 51/148/4 114/149/4 119/150/4
f 16/62/1 36/91/1 54/18/1 42/4/1
f 95/90/1 80/60/1 39/1/1 53/17/1
f 59/23/1 40/2/1 79/59/1 101/101/1
f 78/58/1 63/31/1 73/54/1 100/98/1
f 70/46/1 64/32/1 77/57/1 94/89/1
f 37/151/2 113/152/2 85/153/2 38/154/2
f 92/155/2 115/156/2 116/157/2 93/158/2
f 110/159/2 119/160/2 114/161/2 111/162/2
f 120/163/2 112/164/2 109/165/2 108/166/2
f 118/167/2 106/168/2 76/169/2 75/170/2
f 107/171/2 105/172/2 104/173/2 117/174/2
f 41/3/1 60/26/1 35/103/1 15/61/1
s 1
f 1/29/5 2/175/5 3/176/5 4/30/5
f 5/177/6 6/178/6 7/179/6 8/180/6
f 9/67/2 5/177/2 8/180/2 10/68/2
f 11/78/3 12/77/3 13/181/3 14/182/3
f 15/61/1 7/183/1 6/184/1 16/62/1
f 17/102/4 18/96/4 19/185/4 20/186/4
f 21/38/5 22/187/5 23/188/5 24/45/5
f 25/189/5 26/52/5 27/51/5 28/190/5
f 14/191/6 13/192/6 29/193/6 30/194/6
f 20/195/6 19/185/6 31/196/6 32/197/6
f 11/83/2 14/191/2 30/194/2 33/84/2
f 19/185/2 18/96/2 34/106/2 31/196/2
f 17/102/1 20/186/1 32/198/1 35/103/1
f 13/181/1 12/77/1 36/91/1 29/199/1
f 34/200/5 37/201/5 38/202/5 10/203/5
f 30/194/6 29/193/6 6/178/6 5/177/6
f 32/197/6 31/196/6 8/180/6 7/179/6
f 33/84/2 30/194/2 5/177/2 9/67/2
f 31/196/2 34/106/2 10/68/2 8/180/2
f 35/103/1 32/198/1 7/183/1 15/61/1
f 29/199/1 36/91/1 16/62/1 6/184/1
f 1/29/1 64/32/1 70/46/1 24/45/1
f 65/35/2 2/34/2 23/41/2 69/44/2
f 2/175/5 1/29/5 24/45/5 23/188/5
f 3/33/2 66/36/2 74/56/2 28/55/2
f 75/204/6 76/205/6 74/206/6 66/207/6
f 63/31/1 4/30/1 27/51/1 73/54/1
f 4/30/5 3/176/5 28/190/5 27/51/5
f 77/57/1 80/60/1 95/90/1 94/89/1
f 83/65/2 82/64/2 90/79/2 91/82/2
f 105/208/5 107/209/5 90/210/5 82/211/5
f 79/59/1 78/58/1 100/98/1 101/101/1
f 81/63/2 84/66/2 103/105/2 102/104/2
f 108/212/6 109/213/6 103/214/6 84/215/6
f 41/3/1 40/2/1 59/23/1 60/26/1
f 43/5/2 46/8/2 62/28/2 61/27/2
f 85/216/6 113/217/6 62/218/6 46/219/6
f 39/1/1 42/4/1 54/18/1 53/17/1
f 45/7/2 44/6/2 51/13/2 52/16/2
f 111/220/5 114/221/5 51/222/5 44/223/5
f 33/224/5 9/225/5 115/226/5 92/227/5
f 45/228/6 52/229/6 93/230/6 116/231/6
f 65/232/6 69/233/6 117/234/6 104/235/6
f 83/236/6 91/237/6 119/238/6 110/239/6
f 81/240/5 102/241/5 106/242/5 118/243/5
f 43/244/5 61/245/5 112/246/5 120/247/5
