# Blender v2.93.1 OBJ File: 'Desk.blend'
# www.blender.org
mtllib Desk1.mtl
o Drawer_1_Cube.015
v -0.564726 0.134989 -0.094879
v -0.553443 0.134989 -0.094879
v -0.553443 0.096242 -0.094879
v -0.564726 0.096242 -0.094879
v -0.553443 0.134989 -0.074980
v -0.534191 0.134989 -0.074980
v -0.534191 0.134989 -0.094879
v -0.553443 0.134989 0.095018
v -0.564726 0.134989 0.095018
v -0.564726 0.096242 0.095018
v -0.553443 0.096242 0.095018
v -0.564726 0.134989 -0.074980
v -0.564726 0.096242 -0.074980
v -0.564726 0.096242 0.076029
v -0.553443 0.096242 0.076029
v -0.553443 0.134989 0.076029
v -0.553443 0.096242 -0.074980
v -0.564726 0.134989 0.076029
v -0.534191 0.096242 -0.074980
v -0.534191 0.134989 0.076029
v -0.534191 0.096242 0.076029
v -0.534191 0.096242 0.095018
v -0.534191 0.096242 -0.094879
v -0.534191 0.134989 0.095018
v -0.534192 0.238625 -0.321644
v 0.533848 0.238625 -0.321644
v 0.533848 -0.007869 -0.321644
v -0.534192 -0.007869 -0.321644
v -0.534192 0.238625 0.321646
v -0.534192 -0.007869 0.321646
v -0.526173 0.238625 -0.316919
v 0.526173 0.238625 -0.316917
v 0.526173 0.238625 0.316919
v 0.533848 0.238625 0.321646
v -0.526173 0.238625 0.316917
v 0.533848 -0.007869 0.321646
v -0.526173 0.000000 -0.316919
v 0.526173 0.000000 -0.316917
v 0.526173 0.000000 0.316919
v -0.526173 0.000000 0.316917
vt 0.000000 0.000000
vt 0.000000 0.000000
vt 0.000000 0.000000
vt 0.000000 0.000000
vt 0.000000 0.000000
vt 0.000000 0.000000
vt 0.000000 0.000000
vt 0.000000 0.000000
vt 0.000000 0.000000
vt 0.000000 0.000000
vt 0.000000 0.000000
vt 0.000000 0.000000
vt 0.000000 0.000000
vt 0.000000 0.000000
vt 0.000000 0.000000
vt 0.000000 0.000000
vt 0.000000 0.000000
vt 0.000000 0.000000
vt 0.000000 0.000000
vt 0.000000 0.000000
vt 0.000000 0.000000
vt 0.000000 0.000000
vt 0.000000 0.000000
vt 0.000000 0.000000
vt 0.255948 0.720063
vt 0.846303 0.720063
vt 0.846303 0.284135
vt 0.255948 0.284135
vt 1.013168 0.720063
vt 0.004694 0.720063
vt 0.004694 0.284135
vt 1.013168 0.284135
vt 0.004694 0.252091
vt 0.012104 0.256523
vt 0.012104 0.838204
vt 1.005759 0.838204
vt 1.013168 0.842446
vt 0.004694 0.842446
vt 1.013168 0.252091
vt 1.005759 0.256523
vt 0.004694 0.720063
vt 1.013168 0.720063
vt 1.013168 0.284135
vt 0.004694 0.284135
vt 0.004694 0.252091
vt 0.004694 0.842446
vt 1.013168 0.842446
vt 1.013168 0.252091
vt 0.846303 0.720063
vt 0.255948 0.720063
vt 0.255948 0.284135
vt 0.846303 0.284135
vt 0.842061 0.720063
vt 0.260380 0.720063
vt 0.260380 0.298051
vt 0.842061 0.298051
vt 1.005759 0.720063
vt 0.012104 0.720063
vt 0.012104 0.298051
vt 1.005759 0.298051
vt 0.012104 0.256523
vt 1.005759 0.256523
vt 1.005759 0.838204
vt 0.012104 0.838204
vt 0.012104 0.720063
vt 1.005759 0.720063
vt 1.005759 0.298051
vt 0.012104 0.298051
vt 0.260380 0.720063
vt 0.842061 0.720063
vt 0.842061 0.298051
vt 0.260380 0.298051
vt 1.479220 0.781667
vt 1.721765 0.781667
vt 1.721765 0.223372
vt 1.479220 0.223372
vt -0.703685 0.781667
vt -0.449525 0.781667
vt -0.449525 0.223372
vt -0.703685 0.223372
vn 0.0000 0.0000 -1.0000
vn 0.0000 1.0000 0.0000
vn 0.0000 -0.0000 1.0000
vn -1.0000 0.0000 0.0000
vn 0.0000 -1.0000 -0.0000
vn 1.0000 0.0000 0.0000
usemtl Material.003
s 1
f 1/1/1 2/2/1 3/3/1 4/4/1
f 2/2/2 5/5/2 6/6/2 7/7/2
f 8/8/3 9/9/3 10/10/3 11/11/3
f 12/12/4 1/1/4 4/4/4 13/13/4
f 14/14/5 15/15/5 11/11/5 10/10/5
f 12/12/2 5/5/2 2/2/2 1/1/2
f 5/5/6 16/16/6 15/15/6 17/17/6
f 9/9/4 18/18/4 14/14/4 10/10/4
f 13/13/5 17/17/5 15/15/5 14/14/5
f 9/9/2 8/8/2 16/16/2 18/18/2
f 18/18/4 12/12/4 13/13/4 14/14/4
f 18/18/2 16/16/2 5/5/2 12/12/2
f 5/5/3 17/17/3 19/19/3 6/6/3
f 4/4/5 3/3/5 17/17/5 13/13/5
f 15/15/1 16/16/1 20/20/1 21/21/1
f 11/11/5 15/15/5 21/21/5 22/22/5
f 17/17/5 3/3/5 23/23/5 19/19/5
f 8/8/3 11/11/3 22/22/3 24/24/3
f 16/16/2 8/8/2 24/24/2 20/20/2
f 3/3/1 2/2/1 7/7/1 23/23/1
usemtl Material.002
f 25/25/1 26/26/1 27/27/1 28/28/1
f 29/29/4 25/30/4 28/31/4 30/32/4
f 25/33/2 31/34/2 32/35/2 33/36/2 34/37/2 26/38/2
f 25/33/2 29/39/2 34/37/2 33/36/2 35/40/2 31/34/2
f 26/41/6 34/42/6 36/43/6 27/44/6
f 28/45/5 27/46/5 36/47/5 30/48/5
f 34/49/3 29/50/3 30/51/3 36/52/3
f 32/53/3 31/54/3 37/55/3 38/56/3
f 33/57/4 32/58/4 38/59/4 39/60/4
f 37/61/2 40/62/2 39/63/2 38/64/2
f 31/65/6 35/66/6 40/67/6 37/68/6
f 35/69/1 33/70/1 39/71/1 40/72/1
f 20/73/6 24/74/6 22/75/6 21/76/6
f 7/77/6 6/78/6 19/79/6 23/80/6
